<svg xmlns="http://www.w3.org/2000/svg" version="1.1" xmlns:xlink="http://www.w3.org/1999/xlink" xmlns:svgjs="http://svgjs.dev/svgjs" width="1500" height="939" viewBox="0 0 1500 939"><g transform="matrix(1,0,0,1,-0.9090909090909918,-1.5145161290323017)"><svg viewBox="0 0 396 248" data-background-color="#ffffff" preserveAspectRatio="xMidYMid meet" height="939" width="1500" xmlns="http://www.w3.org/2000/svg" xmlns:xlink="http://www.w3.org/1999/xlink"><g id="tight-bounds" transform="matrix(1,0,0,1,0.2400000000000091,0.4000000000000057)"><svg viewBox="0 0 395.52 247.2" height="247.2" width="395.52"><g><svg></svg></g><g><svg viewBox="0 0 395.52 247.2" height="247.2" width="395.52"><g transform="matrix(1,0,0,1,75.54432,101.84639999999999)"><svg viewBox="0 0 244.43135999999998 43.5072" height="43.5072" width="244.43135999999998"><g><svg viewBox="0 0 244.43135999999998 43.5072" height="43.5072" width="244.43135999999998"><g><svg viewBox="0 0 244.43135999999998 43.5072" height="43.5072" width="244.43135999999998"><g><svg viewBox="0 0 244.43135999999998 43.5072" height="43.5072" width="244.43135999999998"><g id="textblocktransform"><svg viewBox="0 0 244.43135999999998 43.5072" height="43.5072" width="244.43135999999998" id="textblock"><g><svg viewBox="0 0 244.43135999999998 43.5072" height="43.5072" width="244.43135999999998"><g transform="matrix(1,0,0,1,0,0)"><svg width="244.43135999999998" viewBox="1.34 -35.5 203.68 36.26" height="43.5072" data-palette-color="#556970"><path d="M27.49-9.69L31.2-3.59Q28.76-1.49 25.73-0.37 22.71 0.76 19.46 0.76L19.46 0.76Q16.97 0.76 14.66 0.11 12.35-0.54 10.34-1.72 8.33-2.91 6.67-4.57 5-6.23 3.82-8.24 2.64-10.25 1.99-12.56 1.34-14.87 1.34-17.36L1.34-17.36Q1.34-19.85 1.99-22.17 2.64-24.49 3.82-26.5 5-28.52 6.67-30.18 8.33-31.84 10.34-33.02 12.35-34.2 14.66-34.85 16.97-35.5 19.46-35.5L19.46-35.5Q22.71-35.5 25.73-34.39 28.76-33.28 31.2-31.15L31.2-31.15 27.49-25.05Q25.95-26.71 23.85-27.6 21.75-28.49 19.46-28.49L19.46-28.49Q17.14-28.49 15.11-27.61 13.09-26.73 11.57-25.23 10.06-23.73 9.18-21.69 8.3-19.65 8.3-17.36L8.3-17.36Q8.3-15.06 9.18-13.05 10.06-11.04 11.57-9.52 13.09-8.01 15.11-7.13 17.14-6.25 19.46-6.25L19.46-6.25Q21.75-6.25 23.85-7.14 25.95-8.03 27.49-9.69L27.49-9.69ZM49.27-28L42.26-28 42.26-13.99 49.27-13.99Q50.71-13.99 51.98-14.54 53.24-15.09 54.2-16.04 55.15-16.99 55.7-18.27 56.25-19.56 56.25-21L56.25-21Q56.25-22.44 55.7-23.72 55.15-25 54.2-25.95 53.24-26.9 51.98-27.45 50.71-28 49.27-28L49.27-28ZM42.26-7.01L42.26 0 35.25 0 35.25-35.01 49.27-35.01Q51.19-35.01 52.98-34.51 54.76-34.01 56.31-33.09 57.86-32.18 59.14-30.9 60.42-29.61 61.34-28.05 62.25-26.49 62.75-24.71 63.25-22.92 63.25-21L63.25-21Q63.25-19.19 62.8-17.48 62.35-15.77 61.51-14.23 60.67-12.7 59.45-11.4 58.23-10.11 56.71-9.16L56.71-9.16 60.59 0 53.15 0 50.1-7.06 42.26-7.01ZM102.58-25L102.58 0 95.6 0 95.6-25Q95.6-25.73 95.32-26.37 95.04-27 94.56-27.48 94.09-27.95 93.45-28.22 92.82-28.49 92.08-28.49L92.08-28.49Q91.35-28.49 90.72-28.22 90.08-27.95 89.61-27.48 89.13-27 88.86-26.37 88.59-25.73 88.59-25L88.59-25 88.59 0 81.59 0 81.59-25Q81.59-25.73 81.32-26.37 81.05-27 80.57-27.48 80.1-27.95 79.46-28.22 78.83-28.49 78.1-28.49L78.1-28.49Q77.36-28.49 76.73-28.22 76.09-27.95 75.62-27.48 75.14-27 74.87-26.37 74.6-25.73 74.6-25L74.6-25 74.6 0 67.6 0 67.6-25Q67.6-27.17 68.42-29.09 69.23-31.01 70.66-32.43 72.09-33.86 74.01-34.68 75.92-35.5 78.1-35.5L78.1-35.5Q80.05-35.5 81.86-34.8 83.66-34.11 85.1-32.79L85.1-32.79Q86.54-34.11 88.34-34.8 90.13-35.5 92.08-35.5L92.08-35.5Q94.26-35.5 96.17-34.68 98.09-33.86 99.52-32.43 100.95-31.01 101.77-29.09 102.58-27.17 102.58-25L102.58-25ZM115.84-13.99L115.84 0 108.83 0 108.83-35.01 115.84-35.01 115.84-21 129.83-21 129.83-35.01 136.83-35.01 136.83 0 129.83 0 129.83-13.99 115.84-13.99ZM170.94-35.01L170.94-13.99Q170.94-11.08 169.84-8.53 168.74-5.98 166.84-4.09 164.93-2.2 162.38-1.1 159.83 0 156.92 0L156.92 0Q154.02 0 151.47-1.1 148.92-2.2 147.02-4.09 145.13-5.98 144.03-8.53 142.93-11.08 142.93-13.99L142.93-13.99 142.93-35.01 149.92-35.01 149.92-13.99Q149.92-12.55 150.47-11.28 151.02-10.01 151.97-9.06 152.92-8.11 154.2-7.56 155.48-7.01 156.92-7.01L156.92-7.01Q158.36-7.01 159.65-7.56 160.93-8.11 161.88-9.06 162.83-10.01 163.38-11.28 163.93-12.55 163.93-13.99L163.93-13.99 163.93-35.01 170.94-35.01ZM205.02-10.5L205.02-10.5Q205.02-8.33 204.19-6.42 203.36-4.52 201.93-3.09 200.5-1.66 198.6-0.83 196.69 0 194.52 0L194.52 0 177.01 0 177.01-35.01 194.52-35.01Q196.69-35.01 198.6-34.18 200.5-33.35 201.93-31.92 203.36-30.49 204.19-28.59 205.02-26.68 205.02-24.51L205.02-24.51Q205.02-23.54 204.75-22.51 204.48-21.48 203.99-20.53 203.5-19.58 202.82-18.8 202.14-18.02 201.31-17.5L201.31-17.5Q202.16-17.04 202.84-16.25 203.53-15.45 204.02-14.5 204.5-13.55 204.76-12.51 205.02-11.47 205.02-10.5ZM184.02-13.99L184.02-7.01 194.52-7.01Q195.25-7.01 195.89-7.28 196.52-7.54 197-8.02 197.47-8.5 197.74-9.13 198.01-9.77 198.01-10.5L198.01-10.5Q198.01-11.23 197.74-11.87 197.47-12.5 197-12.98 196.52-13.45 195.89-13.72 195.25-13.99 194.52-13.99L194.52-13.99 184.02-13.99ZM184.02-28L184.02-21 194.52-21Q195.25-21 195.89-21.26 196.52-21.53 197-22.01 197.47-22.49 197.74-23.13 198.01-23.78 198.01-24.51L198.01-24.51Q198.01-25.24 197.74-25.88 197.47-26.51 197-26.99 196.52-27.47 195.89-27.73 195.25-28 194.52-28L194.52-28 184.02-28Z" opacity="1" transform="matrix(1,0,0,1,0,0)" fill="#556970" class="wordmark-text-0" data-fill-palette-color="primary" id="text-0"></path></svg></g></svg></g></svg></g></svg></g></svg></g></svg></g></svg></g><path d="M186.258 95.846L186.258 34.149 7.356 34.149 7.356 213.051 186.258 213.051 186.258 151.354 182.334 151.354 182.334 209.127 11.28 209.127 11.28 38.073 182.334 38.073 182.334 95.846Z" fill="#556970" stroke="transparent" data-fill-palette-color="tertiary"></path></svg></g><defs></defs></svg><rect width="395.52" height="247.2" fill="none" stroke="none" visibility="hidden"></rect></g></svg></g></svg>